<svg width="877" height="527" viewBox="0 0 877 527" fill="none" xmlns="http://www.w3.org/2000/svg">
<g filter="url(#filter0_d)">
<path d="M43.1141 516.824C34.5817 516.985 26.3457 512.865 20.2048 505.363C14.0639 497.862 10.5171 487.589 10.3389 476.788L10 356.636C10.0025 346.961 12.7992 337.621 17.8633 330.375C13.2087 323.3 10.6443 314.394 10.6101 305.186V189.884C10.8816 182.267 11.9181 174.726 13.6944 167.441C11.639 162.064 10.4192 156.237 10.1017 150.277V50.3365C10.1017 28.1943 8.98319 10 27.0485 10L841.207 10.5578C859.272 10.5578 866.525 28.1943 866.525 50.3365V156.842C866.531 163.608 865.153 170.261 862.526 176.152C865.111 181.986 866.476 188.559 866.491 195.248L867 317.459C867.013 321.249 866.591 325.022 865.746 328.658C866.558 332.185 866.969 335.841 866.966 339.515V476.831C866.814 487.654 863.279 497.96 857.135 505.489C850.991 513.019 842.74 517.156 834.191 516.995L43.1141 516.824Z" fill="#FCCE99"/>
<path d="M865.78 329.27C865.766 329.185 865.766 329.097 865.78 329.012C866.593 325.451 867.004 321.762 867 318.055L866.526 195.937C866.51 189.24 865.146 182.658 862.562 176.816L862.765 176.344L862.562 175.828C865.158 169.933 866.511 163.288 866.492 156.535V50.832C866.492 28.6602 859.242 11 841.185 11H783.355C783.355 11.6875 783.355 12.375 783.355 13.1055V120.012C783.38 126.768 782.051 133.421 779.493 139.348C782.061 145.212 783.424 151.803 783.456 158.512L783.931 281.273C783.968 285.082 783.557 288.877 782.711 292.531C783.496 296.069 783.895 299.727 783.897 303.402V441.117C783.772 451.97 780.255 462.317 774.118 469.882C767.981 477.448 759.728 481.614 751.17 481.465H11C11.7632 490.06 14.6525 498.127 19.2535 504.511C23.8545 510.894 29.9311 515.266 36.6119 517H37.2217H37.5605H38.1703H38.3397H38.9156H39.9997H40.474H835.019C843.427 516.867 851.463 512.584 857.422 505.058C863.38 497.533 866.792 487.359 866.932 476.695V340.398C866.935 336.72 866.525 333.059 865.713 329.527C865.719 329.436 865.743 329.348 865.78 329.27Z" fill="#A76D50"/>
<path d="M14.7118 355.542L15.0508 486.379C15.0508 489.537 16.0222 492.565 17.7513 494.798C19.4804 497.031 21.8256 498.285 24.2709 498.285H842.017C843.231 498.285 844.433 497.976 845.554 497.375C846.675 496.774 847.693 495.893 848.549 494.782C849.406 493.672 850.084 492.354 850.546 490.905C851.007 489.455 851.242 487.902 851.238 486.335V337.026C851.242 335.459 851.007 333.906 850.546 332.456C850.084 331.007 849.406 329.689 848.549 328.579C847.693 327.469 846.675 326.588 845.554 325.987C844.433 325.386 843.231 325.076 842.017 325.076H464.228C463.822 325.033 463.414 325.033 463.008 325.076L415.043 333.349C414.233 333.481 413.413 333.481 412.602 333.349L362.908 325.164H361.722H50.0331C48.4795 325.169 46.952 325.681 45.5925 326.652L19.4914 345.124C18.0459 346.15 16.84 347.658 15.9994 349.49C15.1587 351.322 14.7141 353.412 14.7118 355.542V355.542Z" fill="#FCD19E"/>
<path d="M203.216 340.878C237.114 329.454 297.181 325.558 369.01 326.214L362.942 325.164H361.756H263.453C242.9 326.627 222.485 330.391 202.437 336.413C141.541 357.647 77.9365 362.666 15.4914 351.165C15.3858 351.508 15.2953 351.859 15.2202 352.215C15.1206 352.554 15.0523 352.907 15.0168 353.266V353.266C15.0168 353.266 15.0168 353.616 15.0168 353.747C15.0168 353.747 15.0168 354.098 15.0168 354.273C15.0001 354.418 15.0001 354.565 15.0168 354.71V355.805C77.886 367.323 141.911 362.245 203.216 340.878V340.878Z" fill="#F8C796"/>
<path d="M464.228 325.164C463.822 325.121 463.414 325.121 463.008 325.164L445.042 328.228C589.175 334.487 755.883 352.828 851.407 364.384V359.657C762.426 348.889 611.954 332.299 475.347 325.032L464.228 325.164Z" fill="#F8C796"/>
<path d="M414.873 333.481C414.063 333.612 413.243 333.612 412.433 333.481L396.128 330.767C329.214 330.767 273.418 334.706 241.317 345.562C129.455 383.425 44.4738 360.27 15.7964 349.939C15.7964 350.289 15.5253 350.64 15.3897 350.99L15.0846 352.128V352.653V353.222V353.791C15.0846 353.791 15.0846 354.141 15.0846 354.36C44.2027 364.866 129.998 388.197 242.572 349.983C342.265 316.234 672.8 348.188 851.576 368.893V364.559C738.968 351.428 566.362 333.918 428.873 331.292L414.873 333.481Z" fill="#F8C796"/>
<path d="M457.754 325.164C429.246 312.032 363.959 323.457 359.722 323.413C272.978 324.07 135.15 323.413 48.101 326.039C97.1169 327.659 371.756 333.831 371.45 333.787C416.094 339.872 414.806 338.164 418.161 337.858L464.228 332.43C572.26 332.43 735.884 328.841 844.933 325.295C766.9 322.8 457.449 325.164 457.754 325.164Z" fill="#A76D50"/>
<path d="M841.577 10H23.8641C22.6505 9.99999 21.4487 10.3094 20.3279 10.9105C19.207 11.5116 18.1891 12.3925 17.3325 13.5027C16.4759 14.6129 15.7974 15.9306 15.3361 17.3802C14.8747 18.8298 14.6395 20.3827 14.644 21.95V140.136C14.6364 143.134 15.5048 146.025 17.0757 148.232C18.6467 150.439 20.8045 151.8 23.1184 152.043L116.676 162.023H818.696C820.069 162.011 821.423 161.607 822.662 160.841C830.594 155.938 838.458 152.568 845.441 148.497C847.055 147.551 848.422 146.024 849.378 144.097C850.334 142.171 850.839 139.929 850.831 137.641V22.1251C850.849 20.5411 850.623 18.9683 850.166 17.4982C849.709 16.0281 849.03 14.69 848.169 13.5617C847.308 12.4335 846.281 11.5375 845.15 10.9261C844.018 10.3146 842.804 9.99983 841.577 10Z" fill="#FCD19E"/>
<path d="M820.153 162.46C714.088 167.1 626.225 165.218 521.854 163.423C425.382 162.242 258.232 171.127 24.4404 162.46V161.673C264.164 152.918 421.043 161.935 521.854 160.71C622.022 159.002 713.986 156.989 820.153 161.673V162.46Z" fill="#A76D50"/>
<path d="M15.1525 174.017L15.322 299.601C15.3253 301.936 15.8605 304.219 16.861 306.165C17.8616 308.111 19.2832 309.634 20.949 310.544L46.0671 324.288C47.2049 324.903 48.4269 325.216 49.6603 325.208H365.485C369.823 324.551 400.365 319.955 410.907 319.955C422.772 319.955 456.33 324.595 460.737 325.208H842.051C843.268 325.208 844.472 324.897 845.595 324.293C846.719 323.689 847.738 322.804 848.595 321.689C849.452 320.575 850.13 319.252 850.589 317.797C851.049 316.342 851.28 314.785 851.271 313.214L850.661 180.057C850.649 177.348 849.925 174.725 848.607 172.617C847.289 170.51 845.456 169.043 843.407 168.457L822.153 162.329C821.496 162.153 820.825 162.065 820.153 162.067H24.4065C23.1913 162.067 21.9879 162.376 20.8651 162.976C19.7424 163.577 18.7222 164.457 17.8629 165.567C17.0036 166.676 16.3219 167.994 15.8569 169.443C15.3918 170.893 15.1525 172.447 15.1525 174.017V174.017Z" fill="#FCD19E"/>
<path d="M207.047 62.2632C307.011 48.7812 381.891 23.4806 469.347 42.6093C520.464 53.64 560.328 69.5295 603.581 66.0715C637.479 61.4753 653.648 54.6905 706.63 10.1736H684.19C679.207 14.5509 675.309 17.3524 671.953 19.7599C650.84 35.9571 627.167 45.7879 602.7 48.5186C564.362 51.5827 524.193 35.3868 471.889 23.5243C369.078 0.412315 281.384 37.1377 172.437 44.4477C119.562 43.213 66.8256 37.0248 14.6439 25.9318V43.8349C83.9985 60.4248 156.912 70.4925 207.047 62.2632Z" fill="#F8C796"/>
<path d="M442.873 67.2985C480.77 69.7935 510.397 77.016 529.617 85.0702L558.057 95.707C647.614 124.378 755.138 85.0264 850.831 41.0786V32.324C755.036 76.9285 648.191 116.893 559.311 88.7909C452.296 47.6445 423.517 55.83 266.266 82.1812C256.537 83.5819 246.775 85.4642 237.046 86.5585C236.707 86.5585 140.031 100.96 14.5422 75.484V81.0431C221.894 125.56 321.18 62.5272 442.873 67.2985Z" fill="#F8C796"/>
<path d="M311.96 170.252C278.3 137.729 110.405 133.308 14.6439 133.527V140.53C14.6427 141.398 14.7109 142.263 14.8473 143.113C116.845 143.113 294.299 148.147 309.757 180.364C298.028 199.58 119.15 190.256 15.288 183.121V192.883C139.523 201.812 355.18 212.011 311.96 170.252Z" fill="#F8C796"/>
<path d="M344.468 137.773C389.45 129.018 690.021 155.895 850.763 139.173C850.781 138.809 850.781 138.443 850.763 138.079V129.806C691.953 146.046 387.349 119.738 343.316 128.493C289.52 139.086 31.4574 99.6028 14.5085 96.9764V106.3C40.0335 110.415 289.893 148.585 344.468 137.773Z" fill="#F8C796"/>
<path d="M586.26 170.821C573.175 202.425 733.986 214.287 850.899 218.971V209.166C730.054 204.307 605.276 193.364 593.277 174.804C608.836 159.79 765.341 175.374 850.899 185.266V180.057C850.857 178.556 850.616 177.076 850.187 175.68C760.595 165.043 595.446 148.803 586.26 170.821Z" fill="#F8C796"/>
<path d="M225.826 274.825C287.859 284.674 163.489 280.253 851.204 295.092V284.762C658.869 271.367 457.991 265.108 268.876 262.875C260.063 261.343 208.945 252.589 184.776 252.063C144.099 250.881 85.0833 248.036 15.2881 267.296V278.108H15.4915C123.218 255.696 219.759 274.738 225.826 274.825Z" fill="#F8C796"/>
<path d="M588.328 251.407C779.07 276.576 716.359 246.636 829.34 250.794C836.549 251.086 843.791 251.509 851.068 252.063V241.645C829.848 238.975 811.747 237.662 799.069 237.662C709.681 238.581 771.002 257.579 589.887 232.584C515.312 221.729 418.229 202.6 370.128 202.863C259.995 209.954 133.828 217.22 15.2542 234.16V241.996C489.991 217.395 332.943 217.658 588.328 251.407Z" fill="#F8C796"/>
<path d="M572.396 427.855L593.378 422.339C660.835 407.938 776.053 439.848 851.238 466.506V461.253C789.035 438.36 709.952 415.292 650.292 411.221C602.836 407.807 583.989 416.693 578.057 417.568C501.583 436.959 443.924 402.685 367.586 392.399C314.604 384.826 118.642 394.762 14.8135 405.531V413.453C106.879 407.982 234.165 401.066 309.723 399.752C419.212 396.951 493.719 449.566 572.396 427.855Z" fill="#F8C796"/>
<path d="M607.175 385.57C624.327 383.776 626.395 381.193 627.005 378.742C627.207 377.958 627.211 377.111 627.016 376.324C626.821 375.538 626.437 374.851 625.92 374.364C611.073 357.381 532.125 353.091 527.82 352.872C513.651 350.727 392.433 332.78 382.23 351.865C364.739 384.739 566.226 389.86 607.175 385.57ZM527.481 357.643C544.973 358.562 609.276 363.684 623.039 377.56C606.768 389.16 394.535 379.705 385.315 357.03C377.383 337.508 509.312 354.885 527.481 357.643V357.643Z" fill="#F8C796"/>
<path d="M157.76 460.859C179.963 466.331 211.996 489.837 243.351 498.329H282.571C285.571 497.172 288.496 495.708 291.316 493.952C331.688 469.57 411.653 466.243 484.533 466.243C518.736 466.243 610.361 482.133 693.783 498.11H718.46C629.174 480.601 522.227 461.56 484.567 461.56C411.28 461.56 330.807 464.886 289.757 489.662C248.707 514.437 192.742 464.492 158.438 456.001C136.201 450.529 63.7955 462.523 14.9829 471.759V476.574C63.626 467.557 136.201 455.475 157.76 460.859Z" fill="#F8C796"/>
<path d="M180.709 431.094C221.386 438.316 192.878 493.689 322.197 444.707C369.315 426.848 360.807 428.468 442.331 440.33C507.109 449.785 595.819 462.698 631.14 459.021C665.309 455.475 757.443 480.251 818.56 498.417H842.018C843.519 498.409 844.997 497.928 846.323 497.016C789.069 479.507 671.614 445.539 630.564 449.741C577.074 455.344 397.416 421.858 369.857 421.858C342.299 421.858 293.011 452.499 248.775 455.344C205.318 458.058 215.454 427.855 181.692 421.902C162.573 418.531 79.592 427.417 14.9153 435.252V444.751C79.3886 436.784 162.539 427.855 180.709 431.094Z" fill="#F8C796"/>
<path d="M820.153 161.673C713.817 156.989 621.852 159.002 521.854 160.71C421.144 161.935 264.232 152.787 24.4404 161.673V162.066H822.56L820.153 161.673Z" fill="#A76D50"/>
<g style="mix-blend-mode:screen" opacity="0.13">
<path d="M806.594 93.5184C806.594 64.3658 796.798 36.3075 778.798 10.3502H23.8641C22.6505 10.3502 21.4487 10.6596 20.3279 11.2607C19.207 11.8618 18.1891 12.7427 17.3325 13.8529C16.4759 14.9632 15.7974 16.2808 15.3361 17.7304C14.8747 19.18 14.6395 20.733 14.644 22.3002V140.487C14.6364 143.484 15.5048 146.375 17.0757 148.583C18.6467 150.79 20.8045 152.15 23.1184 152.393L113.422 162.023H24.4065C21.9522 162.023 19.5984 163.282 17.8629 165.523C16.1274 167.764 15.1524 170.803 15.1524 173.973L15.3219 299.557C15.3251 301.529 15.7077 303.47 16.4355 305.205C17.1633 306.939 18.2133 308.413 19.4913 309.493C98.8796 334.706 193.081 349.326 294.062 349.326C577.04 349.37 806.594 234.817 806.594 93.5184ZM410.907 319.867C420.636 319.867 452.398 323.807 462.906 325.164C413.111 333.612 414.738 333.918 412.501 333.437L363.01 325.12C368.637 325.164 397.925 319.867 410.907 319.867Z" fill="#FCD19E"/>
</g>
</g>
<defs>
<filter id="filter0_d" x="0" y="-5" width="877" height="537" filterUnits="userSpaceOnUse" color-interpolation-filters="sRGB">
<feFlood flood-opacity="0" result="BackgroundImageFix"/>
<feColorMatrix in="SourceAlpha" type="matrix" values="0 0 0 0 0 0 0 0 0 0 0 0 0 0 0 0 0 0 127 0" result="hardAlpha"/>
<feOffset/>
<feGaussianBlur stdDeviation="5"/>
<feColorMatrix type="matrix" values="0 0 0 0 0.270833 0 0 0 0 0.170775 0 0 0 0 0.120747 0 0 0 1 0"/>
<feBlend mode="normal" in2="BackgroundImageFix" result="effect1_dropShadow"/>
<feBlend mode="normal" in="SourceGraphic" in2="effect1_dropShadow" result="shape"/>
</filter>
</defs>
</svg>
